# xmcd
#
# Track frame offsets:
#	150
#	13444
#	30722
#	49732
#	63560
#	79466
#	94543
#	114642
#	129933
#	150309
#
# Disc length: 2299 seconds
# Revision: 0
# Processed by: cddbd v1.5.2PL0 Copyright (c) Steve Scherf et al.
# Submitted via: dBpowerAMP V12.0
#
DISCID=7d08f90a
DTITLE=April - Tidelines
DYEAR=2007
DGENRE=Metal
TTITLE0=The Power of One
TTITLE1=First Blood
TTITLE2=Stain
TTITLE3=Soul of Elimination
TTITLE4=Colourblind
TTITLE5=Dead Man Walking
TTITLE6=Weakened to Speak
TTITLE7=Time Is Up
TTITLE8=Two Steps (For a New Revolution)
TTITLE9=Fading
EXTD=
EXTT0=
EXTT1=
EXTT2=
EXTT3=
EXTT4=
EXTT5=
EXTT6=
EXTT7=
EXTT8=
EXTT9=
PLAYORDER=
